<svg width="20" height="20" viewBox="0 0 20 20" fill="none" xmlns="http://www.w3.org/2000/svg">
<g id="IcoRunway" fill="#00C2FF">
<!-- Aircraft, front view: tail, stabiliser, wings, fuselage and engines -->
<rect x="9.6" y="0.8" width="0.8" height="2.6" rx="0.4"/>
<rect x="7.9" y="2.4" width="4.2" height="0.7" rx="0.35"/>
<rect x="2.2" y="4.7" width="15.6" height="0.9" rx="0.45"/>
<circle cx="10" cy="5.4" r="2"/>
<circle cx="5.7" cy="6.2" r="0.95"/>
<circle cx="14.3" cy="6.2" r="0.95"/>
<!-- Runway in perspective with centre-line dashes -->
<path d="M9.15 9H9.75L7.7 19.2H3.9L9.15 9Z"/>
<path d="M10.25 9H10.85L16.1 19.2H12.3L10.25 9Z"/>
<path d="M9.82 10.2H10.18L10.3 12.2H9.7L9.82 10.2Z"/>
<path d="M9.62 13.6H10.38L10.55 16.1H9.45L9.62 13.6Z"/>
<path d="M9.4 17.4H10.6L10.75 19.2H9.25L9.4 17.4Z"/>
</g>
</svg>
